<svg xmlns="http://www.w3.org/2000/svg" viewBox="52 42 88 66" style="--selecton-font-size: 14px; --selecton-button-icon-height: 18.900000000000002px; --selecton-border-radius: 4px; --selecton-button-border-left: 1px solid var(--selection-button-background-hover); --selecton-button-border-right: none; --selecton-tooltip-inner-padding: 2px; --selecton-button-padding: 4px 10px; --selecton-handle-circle-radius: 12.5px; --selecton-search-tooltip-icon-size: 15px; --selecton-anim-duration: 200ms;">
<path fill="#4285f4" d="M58 108h14V74L52 59v43c0 3.32 2.69 6 6 6"/>
<path fill="#34a853" d="M120 108h14c3.32 0 6-2.69 6-6V59l-20 15"/>
<path fill="#fbbc04" d="M120 48v26l20-15v-8c0-7.42-8.47-11.65-14.4-7.2"/>
<path fill="#ea4335" d="M72 74V48l24 18 24-18v26L96 92"/>
<path fill="#c5221f" d="M52 51v8l20 15V48l-5.6-4.2c-5.94-4.45-14.4-.22-14.4 7.2"/>
</svg>